<?xml version="1.0" encoding="UTF-8" standalone="no"?><!DOCTYPE svg PUBLIC "-//W3C//DTD SVG 1.1//EN" "http://www.w3.org/Graphics/SVG/1.1/DTD/svg11.dtd"><svg width="100%" height="100%" viewBox="0 0 457 92" version="1.1" xmlns="http://www.w3.org/2000/svg" xmlns:xlink="http://www.w3.org/1999/xlink" xml:space="preserve" xmlns:serif="http://www.serif.com/" style="fill-rule:evenodd;clip-rule:evenodd;stroke-linejoin:round;stroke-miterlimit:1.41421;"><g><g><path d="M53.417,48.633l-15.674,1.074l-0.733,-0.684l0,-6.103l-0.292,0c-0.782,0.814 -1.661,1.685 -2.637,2.612c-0.977,0.928 -2.1,1.766 -3.369,2.515c-1.465,0.879 -2.881,1.546 -4.248,2.002c-1.367,0.456 -3.304,0.683 -5.811,0.683c-4.264,0 -7.511,-1.391 -9.741,-4.174c-2.23,-2.784 -3.345,-6.828 -3.345,-12.134l0,-23.047c0,-1.172 -0.219,-2.156 -0.659,-2.954c-0.439,-0.797 -1.082,-1.489 -1.928,-2.075c-0.586,-0.391 -1.319,-0.675 -2.198,-0.854c-0.879,-0.179 -1.806,-0.302 -2.783,-0.367l0,-3.173l16.064,-1.172l0.733,0.683l0,33.447c0,3.483 0.781,6.104 2.344,7.861c1.562,1.758 3.434,2.637 5.615,2.637c1.79,0 3.385,-0.277 4.785,-0.83c1.4,-0.553 2.571,-1.204 3.515,-1.953c0.879,-0.684 1.652,-1.408 2.32,-2.173c0.667,-0.765 1.18,-1.473 1.538,-2.124l0,-27.295c0,-1.074 -0.228,-2.026 -0.684,-2.856c-0.456,-0.83 -1.09,-1.538 -1.904,-2.124c-0.586,-0.391 -1.457,-0.627 -2.612,-0.708c-1.156,-0.081 -2.45,-0.155 -3.882,-0.22l0,-3.173l17.48,-1.172l0.733,0.683l0,38.232c0,1.107 0.227,2.051 0.683,2.832c0.456,0.782 1.091,1.449 1.904,2.002c0.586,0.358 1.286,0.594 2.1,0.708c0.814,0.114 1.709,0.187 2.686,0.22l0,3.174Z" style="fill-rule:nonzero;"/><path d="M113.298,49.512l-23.584,0l0,-3.223c0.749,-0.065 1.571,-0.13 2.466,-0.195c0.895,-0.065 1.636,-0.196 2.222,-0.391c0.911,-0.293 1.587,-0.806 2.026,-1.538c0.439,-0.732 0.659,-1.684 0.659,-2.856l0,-24.756c0,-3.418 -0.805,-6.055 -2.417,-7.91c-1.611,-1.856 -3.572,-2.783 -5.884,-2.783c-1.725,0 -3.304,0.268 -4.736,0.805c-1.432,0.538 -2.702,1.197 -3.808,1.978c-1.075,0.749 -1.929,1.554 -2.564,2.417c-0.635,0.863 -1.098,1.554 -1.391,2.075l0,27.685c0,1.107 0.227,2.019 0.683,2.735c0.456,0.716 1.139,1.269 2.051,1.66c0.684,0.325 1.424,0.57 2.222,0.732c0.797,0.163 1.619,0.277 2.465,0.342l0,3.223l-23.583,0l0,-3.223c0.748,-0.065 1.521,-0.13 2.319,-0.195c0.797,-0.065 1.489,-0.196 2.075,-0.391c0.912,-0.293 1.587,-0.806 2.026,-1.538c0.44,-0.732 0.66,-1.684 0.66,-2.856l0,-29.736c0,-1.107 -0.236,-2.124 -0.708,-3.052c-0.472,-0.928 -1.132,-1.685 -1.978,-2.271c-0.618,-0.39 -1.351,-0.675 -2.197,-0.854c-0.846,-0.179 -1.758,-0.301 -2.734,-0.366l0,-3.174l16.015,-1.074l0.684,0.683l0,6.787l0.244,0c0.781,-0.781 1.758,-1.717 2.929,-2.807c1.172,-1.091 2.279,-1.978 3.321,-2.661c1.204,-0.782 2.636,-1.433 4.296,-1.953c1.661,-0.521 3.532,-0.782 5.616,-0.782c4.622,0 8.048,1.441 10.278,4.322c2.23,2.88 3.345,6.713 3.345,11.498l0,25.049c0,1.139 0.195,2.059 0.586,2.759c0.39,0.7 1.057,1.245 2.001,1.636c0.782,0.325 1.457,0.553 2.027,0.683c0.569,0.13 1.359,0.228 2.368,0.293l0,3.223Z" style="fill-rule:nonzero;"/><path d="M159.979,38.184c-2.018,3.841 -4.72,6.901 -8.106,9.179c-3.385,2.279 -7.275,3.418 -11.669,3.418c-3.874,0 -7.268,-0.683 -10.181,-2.051c-2.913,-1.367 -5.314,-3.222 -7.202,-5.566c-1.888,-2.344 -3.296,-5.078 -4.224,-8.203c-0.927,-3.125 -1.391,-6.429 -1.391,-9.912c0,-3.125 0.496,-6.193 1.489,-9.204c0.993,-3.011 2.45,-5.721 4.37,-8.13c1.856,-2.311 4.159,-4.175 6.909,-5.591c2.751,-1.416 5.835,-2.124 9.253,-2.124c3.516,0 6.527,0.554 9.033,1.661c2.507,1.106 4.541,2.62 6.104,4.541c1.497,1.822 2.612,3.971 3.344,6.445c0.733,2.474 1.099,5.159 1.099,8.056l0,3.223l-31.884,0c0,3.158 0.301,6.022 0.903,8.594c0.602,2.571 1.554,4.834 2.856,6.787c1.27,1.888 2.93,3.377 4.981,4.467c2.05,1.091 4.492,1.636 7.324,1.636c2.897,0 5.395,-0.675 7.495,-2.026c2.099,-1.351 4.126,-3.784 6.079,-7.3l3.418,2.1Zm-10.791,-18.36c0,-1.822 -0.155,-3.776 -0.464,-5.859c-0.309,-2.083 -0.806,-3.825 -1.489,-5.224c-0.749,-1.498 -1.774,-2.718 -3.076,-3.662c-1.302,-0.944 -2.979,-1.416 -5.03,-1.416c-3.417,0 -6.258,1.424 -8.52,4.272c-2.262,2.848 -3.491,6.811 -3.686,11.889l22.265,0Z" style="fill-rule:nonzero;"/><path d="M202.41,7.569c0,1.66 -0.407,3.133 -1.221,4.419c-0.813,1.285 -2.067,1.928 -3.759,1.928c-1.823,0 -3.215,-0.472 -4.175,-1.416c-0.96,-0.944 -1.44,-1.985 -1.44,-3.125c0,-0.716 0.057,-1.367 0.17,-1.953c0.114,-0.586 0.22,-1.172 0.318,-1.758c-1.53,0 -3.32,0.619 -5.371,1.856c-2.051,1.237 -3.793,2.995 -5.225,5.273l0,28.027c0,1.14 0.22,2.067 0.659,2.784c0.44,0.716 1.132,1.253 2.076,1.611c0.813,0.325 1.863,0.57 3.149,0.732c1.286,0.163 2.401,0.277 3.345,0.342l0,3.223l-25.391,0l0,-3.223c0.749,-0.065 1.522,-0.13 2.32,-0.195c0.797,-0.065 1.489,-0.196 2.075,-0.391c0.911,-0.293 1.587,-0.806 2.026,-1.538c0.44,-0.732 0.659,-1.684 0.659,-2.856l0,-29.736c0,-1.01 -0.236,-2.002 -0.708,-2.979c-0.472,-0.976 -1.131,-1.758 -1.977,-2.344c-0.619,-0.39 -1.351,-0.675 -2.198,-0.854c-0.846,-0.179 -1.757,-0.301 -2.734,-0.366l0,-3.174l16.016,-1.074l0.683,0.683l0,6.787l0.244,0c2.019,-2.636 4.265,-4.638 6.739,-6.005c2.474,-1.368 4.736,-2.051 6.787,-2.051c2.05,0 3.719,0.667 5.004,2.002c1.286,1.334 1.929,3.125 1.929,5.371Z" style="fill-rule:nonzero;"/><path d="M244.646,49.512l-38.964,0l0,-2.588l27.245,-41.601l-6.738,0c-2.832,0 -5.045,0.048 -6.64,0.146c-1.595,0.098 -3.06,0.423 -4.395,0.977c-0.911,0.358 -1.766,1.383 -2.563,3.076c-0.798,1.693 -1.49,3.906 -2.075,6.64l-2.979,0l0,-14.794l36.816,0l0,2.002l-27.685,42.187c1.172,0.032 2.457,0.057 3.857,0.073c1.4,0.016 2.914,0.024 4.541,0.024c1.302,0 2.661,-0.016 4.077,-0.049c1.416,-0.032 3.231,-0.113 5.445,-0.244c1.302,-0.065 2.286,-0.504 2.954,-1.318c0.667,-0.814 1.18,-1.742 1.538,-2.783c0.358,-0.944 0.789,-2.246 1.294,-3.906c0.504,-1.661 0.952,-3.272 1.342,-4.834l2.93,0l0,16.992Z" style="fill-rule:nonzero;"/><path d="M297.82,24.951c0,3.386 -0.537,6.714 -1.611,9.986c-1.074,3.271 -2.604,6.046 -4.59,8.325c-2.246,2.604 -4.85,4.541 -7.812,5.81c-2.963,1.27 -6.283,1.905 -9.961,1.905c-3.06,0 -5.973,-0.578 -8.74,-1.734c-2.767,-1.155 -5.225,-2.84 -7.373,-5.054c-2.116,-2.18 -3.801,-4.842 -5.054,-7.983c-1.253,-3.141 -1.88,-6.665 -1.88,-10.571c0,-7.519 2.189,-13.672 6.567,-18.457c4.379,-4.785 10.116,-7.178 17.212,-7.178c6.738,0 12.297,2.271 16.675,6.812c4.378,4.541 6.567,10.587 6.567,18.139Zm-10.107,0.098c0,-2.441 -0.244,-5.021 -0.733,-7.739c-0.488,-2.718 -1.22,-5.021 -2.197,-6.909c-1.041,-2.018 -2.409,-3.638 -4.101,-4.859c-1.693,-1.22 -3.76,-1.831 -6.201,-1.831c-2.507,0 -4.647,0.619 -6.421,1.856c-1.774,1.237 -3.215,2.929 -4.322,5.078c-1.041,1.986 -1.774,4.248 -2.197,6.787c-0.423,2.539 -0.635,4.997 -0.635,7.373c0,3.125 0.253,6.014 0.757,8.667c0.505,2.653 1.311,5.021 2.417,7.104c1.107,2.084 2.499,3.719 4.175,4.907c1.676,1.189 3.752,1.783 6.226,1.783c4.069,0 7.291,-1.97 9.667,-5.909c2.377,-3.938 3.565,-9.374 3.565,-16.308Z" style="fill-rule:nonzero;"/><path d="M345.062,44.531c1.302,1.237 2.327,2.637 3.076,4.199c0.749,1.563 1.123,3.5 1.123,5.811c0,2.311 -0.504,4.484 -1.514,6.518c-1.009,2.035 -2.539,3.801 -4.589,5.298c-2.181,1.53 -4.785,2.718 -7.813,3.565c-3.027,0.846 -6.771,1.269 -11.23,1.269c-7.292,0 -12.744,-1.066 -16.357,-3.198c-3.614,-2.132 -5.42,-5.249 -5.42,-9.351c0,-3.32 1.302,-5.94 3.906,-7.861c2.604,-1.92 5.924,-2.962 9.961,-3.125l0,-0.683c-0.977,-0.293 -1.986,-0.66 -3.028,-1.099c-1.041,-0.439 -1.936,-0.952 -2.685,-1.538c-0.846,-0.684 -1.53,-1.489 -2.051,-2.417c-0.521,-0.928 -0.781,-2.075 -0.781,-3.442c0,-1.726 0.61,-3.312 1.831,-4.761c1.221,-1.449 3.068,-2.694 5.542,-3.735l0,-0.733c-3.125,-1.465 -5.55,-3.344 -7.275,-5.639c-1.726,-2.295 -2.588,-4.956 -2.588,-7.984c0,-4.557 1.701,-8.3 5.102,-11.23c3.402,-2.93 7.756,-4.395 13.062,-4.395c1.464,0 2.921,0.147 4.37,0.44c1.448,0.293 2.921,0.667 4.419,1.123l16.796,0l0,4.687l-11.328,0l0,0.293c1.205,1.4 2.1,2.946 2.686,4.639c0.586,1.693 0.879,3.353 0.879,4.98c0,4.232 -1.717,7.813 -5.152,10.742c-3.434,2.93 -7.43,4.395 -11.987,4.395l-5.908,0c-0.749,0.26 -1.53,0.732 -2.344,1.416c-0.813,0.684 -1.22,1.611 -1.22,2.783c0,1.205 0.341,2.124 1.025,2.759c0.684,0.635 1.514,1.066 2.49,1.294c0.944,0.26 2.043,0.423 3.296,0.488c1.253,0.065 2.547,0.114 3.882,0.147c1.432,0.032 3.393,0.13 5.884,0.293c2.49,0.162 4.256,0.26 5.297,0.293c1.498,0.065 3.003,0.423 4.517,1.074c1.514,0.651 2.889,1.546 4.126,2.685Zm-13.184,-28.564c0,-3.808 -0.773,-6.844 -2.319,-9.106c-1.546,-2.263 -3.719,-3.394 -6.518,-3.394c-1.53,0 -2.841,0.318 -3.931,0.952c-1.09,0.635 -1.978,1.538 -2.661,2.71c-0.651,1.074 -1.115,2.368 -1.392,3.882c-0.276,1.514 -0.415,3.068 -0.415,4.663c0,3.613 0.79,6.559 2.368,8.838c1.579,2.279 3.622,3.418 6.128,3.418c2.8,0 4.956,-1.131 6.47,-3.394c1.514,-2.262 2.27,-5.118 2.27,-8.569Zm9.375,40.381c0,-1.823 -0.423,-3.321 -1.269,-4.493c-0.846,-1.171 -2.132,-1.969 -3.858,-2.392c-0.911,-0.13 -2.783,-0.277 -5.615,-0.44c-2.832,-0.162 -6.119,-0.244 -9.863,-0.244c-3.516,0.684 -6.014,1.831 -7.495,3.443c-1.481,1.611 -2.222,3.686 -2.222,6.225c0,1.139 0.245,2.23 0.733,3.272c0.488,1.041 1.334,2.002 2.539,2.88c1.139,0.847 2.669,1.539 4.59,2.076c1.92,0.537 4.264,0.805 7.031,0.805c4.785,0 8.553,-0.919 11.303,-2.758c2.751,-1.84 4.126,-4.631 4.126,-8.374Z" style="fill-rule:nonzero;"/><path d="M397.503,38.184c-2.018,3.841 -4.72,6.901 -8.106,9.179c-3.385,2.279 -7.275,3.418 -11.669,3.418c-3.874,0 -7.268,-0.683 -10.181,-2.051c-2.913,-1.367 -5.314,-3.222 -7.202,-5.566c-1.888,-2.344 -3.296,-5.078 -4.224,-8.203c-0.927,-3.125 -1.391,-6.429 -1.391,-9.912c0,-3.125 0.496,-6.193 1.489,-9.204c0.993,-3.011 2.45,-5.721 4.37,-8.13c1.856,-2.311 4.159,-4.175 6.909,-5.591c2.751,-1.416 5.835,-2.124 9.253,-2.124c3.516,0 6.527,0.554 9.033,1.661c2.507,1.106 4.541,2.62 6.104,4.541c1.497,1.822 2.612,3.971 3.344,6.445c0.733,2.474 1.099,5.159 1.099,8.056l0,3.223l-31.884,0c0,3.158 0.301,6.022 0.903,8.594c0.602,2.571 1.554,4.834 2.856,6.787c1.27,1.888 2.93,3.377 4.981,4.467c2.05,1.091 4.492,1.636 7.324,1.636c2.897,0 5.395,-0.675 7.495,-2.026c2.099,-1.351 4.126,-3.784 6.079,-7.3l3.418,2.1Zm-10.791,-18.36c0,-1.822 -0.155,-3.776 -0.464,-5.859c-0.309,-2.083 -0.806,-3.825 -1.489,-5.224c-0.749,-1.498 -1.774,-2.718 -3.076,-3.662c-1.302,-0.944 -2.979,-1.416 -5.03,-1.416c-3.417,0 -6.258,1.424 -8.52,4.272c-2.262,2.848 -3.491,6.811 -3.686,11.889l22.265,0Z" style="fill-rule:nonzero;"/><path d="M456.243,49.512l-23.584,0l0,-3.223c0.748,-0.065 1.57,-0.13 2.466,-0.195c0.895,-0.065 1.635,-0.196 2.221,-0.391c0.912,-0.293 1.587,-0.806 2.027,-1.538c0.439,-0.732 0.659,-1.684 0.659,-2.856l0,-24.756c0,-3.418 -0.806,-6.055 -2.417,-7.91c-1.611,-1.856 -3.573,-2.783 -5.884,-2.783c-1.725,0 -3.304,0.268 -4.736,0.805c-1.432,0.538 -2.702,1.197 -3.809,1.978c-1.074,0.749 -1.928,1.554 -2.563,2.417c-0.635,0.863 -1.099,1.554 -1.392,2.075l0,27.685c0,1.107 0.228,2.019 0.684,2.735c0.456,0.716 1.139,1.269 2.051,1.66c0.683,0.325 1.424,0.57 2.221,0.732c0.798,0.163 1.62,0.277 2.466,0.342l0,3.223l-23.584,0l0,-3.223c0.749,-0.065 1.522,-0.13 2.32,-0.195c0.797,-0.065 1.489,-0.196 2.075,-0.391c0.911,-0.293 1.587,-0.806 2.026,-1.538c0.44,-0.732 0.659,-1.684 0.659,-2.856l0,-29.736c0,-1.107 -0.236,-2.124 -0.708,-3.052c-0.472,-0.928 -1.131,-1.685 -1.977,-2.271c-0.619,-0.39 -1.351,-0.675 -2.198,-0.854c-0.846,-0.179 -1.757,-0.301 -2.734,-0.366l0,-3.174l16.016,-1.074l0.683,0.683l0,6.787l0.244,0c0.782,-0.781 1.758,-1.717 2.93,-2.807c1.172,-1.091 2.279,-1.978 3.32,-2.661c1.205,-0.782 2.637,-1.433 4.297,-1.953c1.66,-0.521 3.532,-0.782 5.615,-0.782c4.623,0 8.049,1.441 10.279,4.322c2.229,2.88 3.344,6.713 3.344,11.498l0,25.049c0,1.139 0.196,2.059 0.586,2.759c0.391,0.7 1.058,1.245 2.002,1.636c0.781,0.325 1.457,0.553 2.026,0.683c0.57,0.13 1.359,0.228 2.369,0.293l0,3.223Z" style="fill-rule:nonzero;"/></g><path d="M54.273,77.704l4.171,-10.675l4.025,10.675l-8.196,0Zm3.15,-12.659l-8.371,20.826l2.1,0l2.508,-6.475l9.48,0l2.537,6.475l2.129,0l-8.166,-20.826l-2.217,0Z" style="fill:#2a8d7c;fill-rule:nonzero;"/><path d="M69.352,70.82l0,20.592l1.838,0l0,-8.4l0.058,0c0.195,0.545 0.472,1.021 0.831,1.429c0.36,0.409 0.773,0.749 1.24,1.021c0.467,0.272 0.972,0.477 1.517,0.613c0.544,0.136 1.089,0.204 1.633,0.204c1.147,0 2.144,-0.209 2.99,-0.627c0.845,-0.418 1.55,-0.992 2.114,-1.721c0.564,-0.729 0.982,-1.575 1.254,-2.538c0.273,-0.962 0.409,-1.978 0.409,-3.047c0,-1.07 -0.136,-2.086 -0.409,-3.048c-0.272,-0.963 -0.69,-1.809 -1.254,-2.538c-0.564,-0.729 -1.269,-1.308 -2.114,-1.735c-0.846,-0.428 -1.843,-0.642 -2.99,-0.642c-1.225,0 -2.319,0.287 -3.281,0.86c-0.963,0.574 -1.658,1.386 -2.086,2.436l-0.058,0l0,-2.859l-1.692,0Zm12.046,7.526c0,0.777 -0.092,1.55 -0.277,2.318c-0.185,0.768 -0.476,1.454 -0.875,2.057c-0.399,0.602 -0.909,1.093 -1.531,1.472c-0.622,0.38 -1.371,0.569 -2.246,0.569c-0.972,0 -1.794,-0.189 -2.465,-0.569c-0.67,-0.379 -1.215,-0.87 -1.633,-1.472c-0.418,-0.603 -0.719,-1.289 -0.904,-2.057c-0.185,-0.768 -0.277,-1.541 -0.277,-2.318c0,-0.856 0.082,-1.673 0.248,-2.451c0.165,-0.777 0.452,-1.458 0.86,-2.041c0.408,-0.584 0.953,-1.05 1.633,-1.4c0.681,-0.35 1.527,-0.525 2.538,-0.525c0.875,0 1.624,0.189 2.246,0.569c0.622,0.379 1.132,0.87 1.531,1.472c0.399,0.603 0.69,1.289 0.875,2.057c0.185,0.768 0.277,1.541 0.277,2.319Z" style="fill:#2a8d7c;fill-rule:nonzero;"/><path d="M86.094,70.82l0,20.592l1.838,0l0,-8.4l0.058,0c0.194,0.545 0.471,1.021 0.831,1.429c0.36,0.409 0.773,0.749 1.24,1.021c0.466,0.272 0.972,0.477 1.516,0.613c0.545,0.136 1.089,0.204 1.634,0.204c1.147,0 2.144,-0.209 2.989,-0.627c0.846,-0.418 1.551,-0.992 2.115,-1.721c0.564,-0.729 0.982,-1.575 1.254,-2.538c0.272,-0.962 0.409,-1.978 0.409,-3.047c0,-1.07 -0.137,-2.086 -0.409,-3.048c-0.272,-0.963 -0.69,-1.809 -1.254,-2.538c-0.564,-0.729 -1.269,-1.308 -2.115,-1.735c-0.845,-0.428 -1.842,-0.642 -2.989,-0.642c-1.225,0 -2.319,0.287 -3.281,0.86c-0.963,0.574 -1.658,1.386 -2.086,2.436l-0.058,0l0,-2.859l-1.692,0Zm12.046,7.526c0,0.777 -0.092,1.55 -0.277,2.318c-0.185,0.768 -0.476,1.454 -0.875,2.057c-0.399,0.602 -0.909,1.093 -1.531,1.472c-0.623,0.38 -1.371,0.569 -2.246,0.569c-0.972,0 -1.794,-0.189 -2.465,-0.569c-0.671,-0.379 -1.215,-0.87 -1.633,-1.472c-0.418,-0.603 -0.72,-1.289 -0.904,-2.057c-0.185,-0.768 -0.277,-1.541 -0.277,-2.318c0,-0.856 0.082,-1.673 0.248,-2.451c0.165,-0.777 0.452,-1.458 0.86,-2.041c0.408,-0.584 0.953,-1.05 1.633,-1.4c0.681,-0.35 1.527,-0.525 2.538,-0.525c0.875,0 1.623,0.189 2.246,0.569c0.622,0.379 1.132,0.87 1.531,1.472c0.399,0.603 0.69,1.289 0.875,2.057c0.185,0.768 0.277,1.541 0.277,2.319Z" style="fill:#2a8d7c;fill-rule:nonzero;"/><path d="M111.849,84.325l9.945,-12.192l0,-1.313l-11.491,0l0,1.546l9.158,0l-9.829,12.017l0,1.488l12.571,0l0,-1.546l-10.354,0Z" style="fill:#2a8d7c;fill-rule:nonzero;"/><path d="M136.64,85.871l0,-15.051l-1.837,0l0,7.905c0,0.758 -0.088,1.502 -0.263,2.231c-0.175,0.729 -0.447,1.376 -0.816,1.94c-0.37,0.563 -0.836,1.016 -1.4,1.356c-0.564,0.34 -1.245,0.51 -2.042,0.51c-1.458,0 -2.484,-0.35 -3.077,-1.05c-0.593,-0.7 -0.909,-1.73 -0.948,-3.091l0,-9.801l-1.837,0l0,9.771c0,0.895 0.097,1.692 0.291,2.392c0.195,0.7 0.501,1.293 0.919,1.779c0.418,0.486 0.962,0.861 1.633,1.123c0.671,0.263 1.483,0.394 2.436,0.394c1.128,0 2.153,-0.267 3.077,-0.802c0.923,-0.535 1.628,-1.308 2.114,-2.319l0.059,0l0,2.713l1.691,0Z" style="fill:#2a8d7c;fill-rule:nonzero;"/><path d="M140.111,70.82l0,15.051l1.838,0l0,-8.4c0,-0.798 0.087,-1.532 0.262,-2.203c0.175,-0.67 0.443,-1.254 0.802,-1.75c0.36,-0.495 0.827,-0.884 1.401,-1.166c0.573,-0.282 1.249,-0.423 2.027,-0.423c0.583,0 1.079,0.097 1.487,0.291c0.408,0.195 0.734,0.462 0.977,0.803c0.243,0.34 0.418,0.738 0.525,1.195c0.107,0.457 0.161,0.939 0.161,1.444l0,10.209l1.837,0l0,-8.517c0,-0.7 0.063,-1.376 0.19,-2.027c0.126,-0.652 0.345,-1.23 0.656,-1.736c0.311,-0.505 0.729,-0.909 1.254,-1.21c0.525,-0.302 1.186,-0.452 1.984,-0.452c1.322,0 2.245,0.325 2.77,0.977c0.525,0.651 0.788,1.599 0.788,2.844l0,10.121l1.837,0l0,-10.209c0,-3.519 -1.662,-5.279 -4.987,-5.279c-0.992,0 -1.925,0.243 -2.8,0.729c-0.875,0.486 -1.536,1.225 -1.984,2.217c-0.272,-0.992 -0.811,-1.731 -1.618,-2.217c-0.807,-0.486 -1.707,-0.729 -2.698,-0.729c-1.225,0 -2.231,0.262 -3.019,0.787c-0.788,0.525 -1.424,1.255 -1.91,2.188l-0.088,0l0,-2.538l-1.692,0Z" style="fill:#2a8d7c;fill-rule:nonzero;"/><path d="M175.724,65.045l6.913,18.259l7.175,-18.259l2.917,0l0,20.826l-1.984,0l0,-17.996l-0.058,0l-7.117,17.996l-1.866,0l-6.855,-17.996l-0.058,0l0,17.996l-1.983,0l0,-20.826l2.916,0Z" style="fill:#2a8d7c;fill-rule:nonzero;"/><path d="M196.287,75.429l1.838,0c0.038,-1.225 0.427,-2.115 1.166,-2.669c0.739,-0.554 1.692,-0.831 2.859,-0.831c0.544,0 1.054,0.044 1.531,0.131c0.476,0.088 0.894,0.248 1.254,0.481c0.36,0.234 0.642,0.55 0.846,0.948c0.204,0.399 0.306,0.909 0.306,1.531c0,0.409 -0.053,0.739 -0.16,0.992c-0.107,0.253 -0.258,0.452 -0.452,0.598c-0.195,0.146 -0.438,0.248 -0.73,0.306c-0.291,0.059 -0.632,0.107 -1.02,0.146c-0.992,0.117 -1.969,0.238 -2.932,0.365c-0.962,0.126 -1.827,0.345 -2.596,0.656c-0.768,0.311 -1.385,0.763 -1.852,1.356c-0.466,0.593 -0.7,1.415 -0.7,2.465c0,0.758 0.132,1.414 0.394,1.969c0.263,0.554 0.622,1.011 1.079,1.371c0.457,0.359 0.992,0.622 1.604,0.787c0.613,0.165 1.269,0.248 1.969,0.248c0.739,0 1.376,-0.068 1.911,-0.204c0.534,-0.136 1.011,-0.331 1.429,-0.584c0.418,-0.252 0.797,-0.568 1.137,-0.947c0.341,-0.38 0.676,-0.812 1.007,-1.298l0.058,0c0,0.388 0.024,0.743 0.073,1.064c0.048,0.321 0.151,0.598 0.306,0.831c0.156,0.234 0.374,0.414 0.656,0.54c0.282,0.126 0.657,0.19 1.123,0.19c0.253,0 0.462,-0.01 0.627,-0.03c0.166,-0.019 0.355,-0.048 0.569,-0.087l0,-1.546c-0.175,0.078 -0.369,0.117 -0.583,0.117c-0.72,0 -1.079,-0.37 -1.079,-1.109l0,-7.991c0,-1.011 -0.166,-1.833 -0.496,-2.465c-0.331,-0.632 -0.759,-1.123 -1.284,-1.473c-0.525,-0.35 -1.118,-0.588 -1.779,-0.714c-0.661,-0.127 -1.322,-0.19 -1.983,-0.19c-0.875,0 -1.672,0.097 -2.392,0.292c-0.719,0.194 -1.346,0.495 -1.881,0.904c-0.535,0.408 -0.958,0.933 -1.269,1.575c-0.311,0.641 -0.496,1.4 -0.554,2.275Zm9.8,2.217l0,2.391c0,0.739 -0.141,1.4 -0.423,1.984c-0.282,0.583 -0.661,1.079 -1.137,1.487c-0.477,0.408 -1.036,0.72 -1.677,0.933c-0.642,0.214 -1.313,0.321 -2.013,0.321c-0.428,0 -0.846,-0.068 -1.254,-0.204c-0.408,-0.136 -0.768,-0.335 -1.079,-0.598c-0.311,-0.262 -0.559,-0.573 -0.744,-0.933c-0.185,-0.36 -0.277,-0.773 -0.277,-1.24c0,-0.739 0.219,-1.307 0.656,-1.706c0.438,-0.399 0.997,-0.705 1.677,-0.919c0.681,-0.214 1.434,-0.374 2.261,-0.481c0.826,-0.107 1.628,-0.229 2.406,-0.365c0.253,-0.039 0.544,-0.107 0.875,-0.204c0.331,-0.097 0.554,-0.253 0.671,-0.466l0.058,0Z" style="fill:#2a8d7c;fill-rule:nonzero;"/><path d="M224.317,84.646l0,-13.826l-1.838,0l0,2.596l-0.058,0c-0.175,-0.408 -0.423,-0.797 -0.744,-1.166c-0.321,-0.37 -0.686,-0.696 -1.094,-0.977c-0.408,-0.282 -0.86,-0.501 -1.356,-0.657c-0.496,-0.155 -1.026,-0.233 -1.59,-0.233c-1.089,0 -2.056,0.199 -2.902,0.598c-0.846,0.398 -1.555,0.943 -2.129,1.633c-0.574,0.69 -1.011,1.497 -1.313,2.421c-0.301,0.924 -0.452,1.901 -0.452,2.931c0,1.07 0.127,2.076 0.38,3.019c0.252,0.943 0.656,1.765 1.21,2.465c0.554,0.7 1.259,1.249 2.115,1.648c0.855,0.398 1.886,0.598 3.091,0.598c1.109,0 2.076,-0.282 2.902,-0.846c0.827,-0.564 1.454,-1.313 1.882,-2.246l0.058,0l0,2.042c0,1.827 -0.379,3.227 -1.138,4.2c-0.758,0.972 -1.993,1.458 -3.704,1.458c-0.505,0 -1.001,-0.053 -1.487,-0.16c-0.486,-0.107 -0.929,-0.278 -1.327,-0.511c-0.399,-0.233 -0.739,-0.539 -1.021,-0.919c-0.282,-0.379 -0.472,-0.85 -0.569,-1.414l-1.837,0c0.058,0.797 0.277,1.482 0.656,2.056c0.379,0.574 0.855,1.045 1.429,1.415c0.574,0.369 1.22,0.641 1.94,0.816c0.719,0.175 1.458,0.263 2.216,0.263c1.225,0 2.261,-0.165 3.107,-0.496c0.845,-0.331 1.531,-0.807 2.056,-1.429c0.525,-0.622 0.909,-1.381 1.152,-2.275c0.243,-0.895 0.365,-1.896 0.365,-3.004Zm-6.68,-0.496c-0.855,0 -1.594,-0.17 -2.216,-0.511c-0.623,-0.34 -1.138,-0.787 -1.546,-1.341c-0.409,-0.555 -0.71,-1.191 -0.904,-1.911c-0.195,-0.719 -0.292,-1.458 -0.292,-2.216c0,-0.778 0.092,-1.541 0.277,-2.29c0.185,-0.749 0.481,-1.415 0.89,-1.998c0.408,-0.583 0.923,-1.055 1.545,-1.415c0.623,-0.359 1.371,-0.539 2.246,-0.539c0.875,0 1.619,0.184 2.232,0.554c0.612,0.369 1.113,0.856 1.502,1.458c0.389,0.603 0.67,1.274 0.845,2.013c0.175,0.739 0.263,1.478 0.263,2.217c0,0.758 -0.102,1.497 -0.306,2.216c-0.204,0.72 -0.511,1.356 -0.919,1.911c-0.408,0.554 -0.914,1.001 -1.517,1.341c-0.603,0.341 -1.303,0.511 -2.1,0.511Z" style="fill:#2a8d7c;fill-rule:nonzero;"/><path d="M227.642,75.429l1.837,0c0.039,-1.225 0.428,-2.115 1.167,-2.669c0.739,-0.554 1.691,-0.831 2.858,-0.831c0.545,0 1.055,0.044 1.531,0.131c0.477,0.088 0.895,0.248 1.255,0.481c0.359,0.234 0.641,0.55 0.845,0.948c0.205,0.399 0.307,0.909 0.307,1.531c0,0.409 -0.054,0.739 -0.161,0.992c-0.107,0.253 -0.257,0.452 -0.452,0.598c-0.194,0.146 -0.437,0.248 -0.729,0.306c-0.292,0.059 -0.632,0.107 -1.021,0.146c-0.992,0.117 -1.969,0.238 -2.931,0.365c-0.963,0.126 -1.828,0.345 -2.596,0.656c-0.768,0.311 -1.385,0.763 -1.852,1.356c-0.467,0.593 -0.7,1.415 -0.7,2.465c0,0.758 0.131,1.414 0.394,1.969c0.262,0.554 0.622,1.011 1.079,1.371c0.457,0.359 0.991,0.622 1.604,0.787c0.612,0.165 1.269,0.248 1.969,0.248c0.739,0 1.375,-0.068 1.91,-0.204c0.535,-0.136 1.011,-0.331 1.429,-0.584c0.418,-0.252 0.798,-0.568 1.138,-0.947c0.34,-0.38 0.676,-0.812 1.006,-1.298l0.058,0c0,0.388 0.025,0.743 0.073,1.064c0.049,0.321 0.151,0.598 0.307,0.831c0.155,0.234 0.374,0.414 0.656,0.54c0.282,0.126 0.656,0.19 1.123,0.19c0.253,0 0.462,-0.01 0.627,-0.03c0.165,-0.019 0.355,-0.048 0.569,-0.087l0,-1.546c-0.175,0.078 -0.37,0.117 -0.584,0.117c-0.719,0 -1.079,-0.37 -1.079,-1.109l0,-7.991c0,-1.011 -0.165,-1.833 -0.496,-2.465c-0.33,-0.632 -0.758,-1.123 -1.283,-1.473c-0.525,-0.35 -1.118,-0.588 -1.779,-0.714c-0.661,-0.127 -1.322,-0.19 -1.984,-0.19c-0.875,0 -1.672,0.097 -2.391,0.292c-0.72,0.194 -1.347,0.495 -1.882,0.904c-0.534,0.408 -0.957,0.933 -1.268,1.575c-0.311,0.641 -0.496,1.4 -0.554,2.275Zm9.8,2.217l0,2.391c0,0.739 -0.141,1.4 -0.423,1.984c-0.282,0.583 -0.661,1.079 -1.138,1.487c-0.476,0.408 -1.035,0.72 -1.677,0.933c-0.642,0.214 -1.312,0.321 -2.012,0.321c-0.428,0 -0.846,-0.068 -1.255,-0.204c-0.408,-0.136 -0.768,-0.335 -1.079,-0.598c-0.311,-0.262 -0.559,-0.573 -0.744,-0.933c-0.184,-0.36 -0.277,-0.773 -0.277,-1.24c0,-0.739 0.219,-1.307 0.657,-1.706c0.437,-0.399 0.996,-0.705 1.677,-0.919c0.68,-0.214 1.434,-0.374 2.26,-0.481c0.827,-0.107 1.629,-0.229 2.406,-0.365c0.253,-0.039 0.545,-0.107 0.875,-0.204c0.331,-0.097 0.555,-0.253 0.671,-0.466l0.059,0Z" style="fill:#2a8d7c;fill-rule:nonzero;"/><path d="M243.858,84.325l9.946,-12.192l0,-1.313l-11.491,0l0,1.546l9.158,0l-9.829,12.017l0,1.488l12.571,0l0,-1.546l-10.355,0Z" style="fill:#2a8d7c;fill-rule:nonzero;"/><path d="M256.488,65.045l0,2.946l1.837,0l0,-2.946l-1.837,0Zm0,5.775l0,15.051l1.837,0l0,-15.051l-1.837,0Z" style="fill:#2a8d7c;fill-rule:nonzero;"/><path d="M261.825,70.82l0,15.051l1.838,0l0,-8.78c0.019,-0.739 0.141,-1.424 0.364,-2.056c0.224,-0.632 0.535,-1.176 0.934,-1.633c0.398,-0.457 0.884,-0.817 1.458,-1.079c0.574,-0.263 1.23,-0.394 1.969,-0.394c0.739,0 1.356,0.116 1.852,0.35c0.496,0.233 0.89,0.554 1.181,0.962c0.292,0.409 0.496,0.89 0.613,1.444c0.116,0.554 0.175,1.152 0.175,1.794l0,9.392l1.837,0l0,-9.684c0,-0.894 -0.087,-1.701 -0.262,-2.421c-0.175,-0.719 -0.477,-1.327 -0.904,-1.823c-0.428,-0.495 -0.997,-0.88 -1.707,-1.152c-0.709,-0.272 -1.589,-0.408 -2.639,-0.408c-1.07,0 -2.052,0.277 -2.946,0.831c-0.895,0.554 -1.517,1.288 -1.867,2.202l-0.058,0l0,-2.596l-1.838,0Z" style="fill:#2a8d7c;fill-rule:nonzero;"/></g></svg>